# File created by Blade
# Date/Time:  Tue Sep 30 19:31:19 2014
#---------------------------------------------------------
:version 1.10
:name HOM
:units
  mass 1.0
  length 1.000000
  angle deg
:documentation
     Acclaim Skeleton File
:root
   axis xyz
   order TX TY TZ RX RY RZ
   position 0.000000 0.000000 0.000000
   orientation 0 0 0
:bonedata
   begin
      id 1
      name Spine_dum
      direction 0.000000 1.000000 0.000000
      length 3.241213
      axis 0.0 0.0 0.0 xyz
   end
   begin
      id 2
      name LeftUpLeg_dum
      direction 1.000000 0.000000 0.000000
      length 3.434019
      axis 0.0 0.0 0.0 xyz
   end
   begin
      id 3
      name RightUpLeg_dum
      direction -1.000000 0.000000 0.000000
      length 3.434019
      axis 0.0 0.0 0.0 xyz
   end
   begin
      id 4
      name Spine
      direction 0.000000 1.000000 0.000000
      length 0.000000
      axis 0.0 0.0 0.0 xyz
      dof rx ry rz
   end
   begin
      id 5
      name Spine_dum1
      direction 0.000000 1.000000 0.000000
      length 18.382958
      axis 0.0 0.0 0.0 xyz
   end
   begin
      id 6
      name Spine_dum2
      direction 0.000000 1.000000 0.000000
      length 12.828261
      axis 0.0 0.0 0.0 xyz
   end
   begin
      id 7
      name Spine_dum3
      direction 0.000000 1.000000 0.000000
      length 12.828261
      axis 0.0 0.0 0.0 xyz
   end
   begin
      id 8
      name Head
      direction 0.000000 1.000000 0.000000
      length 4.527550
      axis 0.0 0.0 0.0 xyz
      dof rx ry rz
   end
   begin
      id 9
      name LeftShoulder
      direction 1.000000 0.000000 0.000000
      length 7.748055
      axis 0.0 0.0 -90.0 xyz
      dof rx ry rz
   end
   begin
      id 10
      name LeftArm
      direction 1.000000 0.000000 0.000000
      length 10.635614
      axis 0.0 0.0 -90.0 xyz
      dof rx ry rz
   end
   begin
      id 11
      name LeftForeArm
      direction 1.000000 0.000000 0.000000
      length 8.346755
      axis 0.0 0.0 -90.0 xyz
      dof ry rz rx
   end
   begin
      id 12
      name LeftHand
      direction 0.000000 0.000000 0.000000
      length 0.000000
      axis 0.0 0.0 -90.0 xyz
      dof rx ry rz
   end
   begin
      id 13
      name LeftHand_dum1
      direction 0.000000 0.000000 0.000000
      length 0.000000
      axis 0.0 0.0 -90.0 xyz
   end
   begin
      id 14
      name LeftHand_dum2
      direction 1.000000 0.000000 0.000000
      length 3.937000
      axis 0.0 0.0 -90.0 xyz
   end
   begin
      id 15
      name LeftHandThumb1
      direction 0.000000 0.000000 1.000000
      length 3.937000
      axis 0.0 0.0 -90.0 xyz
      dof rx rz ry
   end
   begin
      id 16
      name RightShoulder
      direction -1.000000 0.000000 0.000000
      length 7.748055
      axis 0.0 0.0 90.0 xyz
      dof rx ry rz
   end
   begin
      id 17
      name RightArm
      direction -1.000000 0.000000 0.000000
      length 10.635614
      axis 0.0 0.0 90.0 xyz
      dof rx ry rz
   end
   begin
      id 18
      name RightForeArm
      direction -1.000000 0.000000 0.000000
      length 8.346755
      axis 0.0 0.0 90.0 xyz
      dof ry rz rx
   end
   begin
      id 19
      name RightHand
      direction 0.000000 0.000000 0.000000
      length 0.000000
      axis 0.0 0.0 90.0 xyz
      dof rx ry rz
   end
   begin
      id 20
      name RightHand_dum1
      direction 0.000000 0.000000 0.000000
      length 0.000000
      axis 0.0 0.0 90.0 xyz
   end
   begin
      id 21
      name RightHand_dum2
      direction -1.000000 0.000000 0.000000
      length 3.937000
      axis 0.0 0.0 90.0 xyz
   end
   begin
      id 22
      name RightHandThumb1
      direction 0.000000 0.000000 1.000000
      length 3.937000
      axis 0.0 0.0 90.0 xyz
      dof rx rz ry
   end
   begin
      id 23
      name LeftUpLeg
      direction 0.000000 -1.000000 0.000000
      length 15.713025
      axis 0.0 0.0 0.0 xyz
      dof rx ry rz
   end
   begin
      id 24
      name LeftLeg
      direction 0.000000 -1.000000 0.000000
      length 14.435119
      axis 0.0 0.0 0.0 xyz
      dof rx ry rz
   end
   begin
      id 25
      name LeftFoot
      direction 0.000000 -0.258819 0.965926
      length 4.938895
      axis 15.0 0.0 0.0 xyz
      dof rx ry rz
   end
   begin
      id 26
      name LeftToeBase
      direction 0.000000 0.000000 1.000000
      length 2.952750
      axis 0.0 0.0 0.0 xyz
      dof rx ry rz
   end
   begin
      id 27
      name RightUpLeg
      direction 0.000000 -1.000000 0.000000
      length 15.713025
      axis 0.0 0.0 0.0 xyz
      dof rx ry rz
   end
   begin
      id 28
      name RightLeg
      direction 0.000000 -1.000000 0.000000
      length 14.435119
      axis 0.0 0.0 0.0 xyz
      dof rx ry rz
   end
   begin
      id 29
      name RightFoot
      direction 0.000000 -0.258819 0.965926
      length 4.938895
      axis 15.0 0.0 0.0 xyz
      dof rx ry rz
   end
   begin
      id 30
      name RightToeBase
      direction 0.000000 0.000000 1.000000
      length 2.952750
      axis 0.0 0.0 0.0 xyz
      dof rx ry rz
   end
:hierarchy
   begin
      root Spine_dum LeftUpLeg_dum RightUpLeg_dum
      Spine_dum Spine
      LeftUpLeg_dum LeftUpLeg
      RightUpLeg_dum RightUpLeg
      Spine Spine_dum1 Spine_dum2 Spine_dum3
      Spine_dum1 Head
      Spine_dum2 LeftShoulder
      Spine_dum3 RightShoulder
      LeftShoulder LeftArm
      LeftArm LeftForeArm
      LeftForeArm LeftHand
      LeftHand LeftHand_dum1 LeftHand_dum2
      LeftHand_dum1 LeftHandThumb1
      RightShoulder RightArm
      RightArm RightForeArm
      RightForeArm RightHand
      RightHand RightHand_dum1 RightHand_dum2
      RightHand_dum1 RightHandThumb1
      LeftUpLeg LeftLeg
      LeftLeg LeftFoot
      LeftFoot LeftToeBase
      RightUpLeg RightLeg
      RightLeg RightFoot
      RightFoot RightToeBase
   end

# File created by Blade
# Date/Time:  Thu Sep 25 17:54:10 2014
# Frame Rate: 120.000 fps
#------------------------------------------------------
:FULLY-SPECIFIED
:DEGREES
1269
root 0.637048 32.654308 -5.575951 23.750631 1.945007 -0.134459
Spine -27.511837 -11.068396 6.935998
Head 30.196927 27.870580 17.462177
LeftShoulder -21.592835 26.055519 52.968169
LeftArm 209.505710 -31.042239 -121.284223
LeftForeArm -14.122981 0.000000 124.332283
LeftHand -6.156757 -0.000000 -25.656803
LeftHandThumb1 -26.253704 0.000000 33.147579
RightShoulder -49.078036 -59.715143 -14.022529
RightArm 105.979086 40.718939 144.914583
RightForeArm 75.967561 0.000000 132.944870
RightHand 11.702858 -0.000000 1.420689
RightHandThumb1 -24.326973 -0.000000 -32.862282
LeftUpLeg -16.474986 4.000453 -0.677100
LeftLeg -1.661421 -0.000000 0.000000
LeftFoot -4.584540 -2.482126 -1.755107
LeftToeBase 3.435694 -0.000000 -0.000000
RightUpLeg -16.108874 -9.430142 3.184400
RightLeg -2.616123 -0.000000 0.000000
RightFoot -6.682268 -0.509893 12.572316
RightToeBase 15.539164 -0.000000 -0.000000
1270
root 0.637853 32.654534 -5.578325 23.745705 1.938438 -0.138001
Spine -27.500833 -11.056836 6.935831
Head 30.210460 27.859232 17.443177
LeftShoulder -21.593617 26.064554 52.968096
LeftArm 209.499297 -31.072960 -121.281043
LeftForeArm -14.181761 -0.000000 124.313815
LeftHand -6.178870 -0.000000 -25.592118
LeftHandThumb1 -26.253704 0.000000 33.147579
RightShoulder -49.077763 -59.746977 -13.994640
RightArm 106.007759 40.695799 144.949369
RightForeArm 75.931601 -0.000000 132.989242
RightHand 11.749078 -0.000000 1.391427
RightHandThumb1 -24.326973 -0.000000 -32.862282
LeftUpLeg -16.465433 3.986273 -0.669971
LeftLeg -1.675965 -0.000000 0.000000
LeftFoot -4.575508 -2.468343 -1.781059
LeftToeBase 3.444938 -0.000000 -0.000000
RightUpLeg -16.111905 -9.414450 3.183315
RightLeg -2.606952 -0.000000 0.000000
RightFoot -6.709274 -0.538417 12.491591
RightToeBase 15.638534 -0.000000 -0.000000
1271
root 0.639017 32.654406 -5.579471 23.742636 1.943137 -0.136684
Spine -27.494300 -11.046474 6.935194
Head 30.213071 27.834343 17.410467
LeftShoulder -21.597444 26.063848 52.960521
LeftArm 209.490878 -31.100701 -121.265724
LeftForeArm -14.208935 -0.000000 124.301102
LeftHand -6.156649 -0.000000 -25.547588
LeftHandThumb1 -26.253704 0.000000 33.147579
RightShoulder -49.073420 -59.750600 -13.988265
RightArm 106.007072 40.692094 144.941045
RightForeArm 75.884666 -0.000000 133.019278
RightHand 11.812213 0.000000 1.311836
RightHandThumb1 -24.326973 -0.000000 -32.862282
LeftUpLeg -16.471652 4.009405 -0.680275
LeftLeg -1.663739 -0.000000 0.000000
LeftFoot -4.582123 -2.494729 -1.766425
LeftToeBase 3.455160 -0.000000 -0.000000
RightUpLeg -16.109471 -9.421009 3.183381
RightLeg -2.608979 -0.000000 0.000000
RightFoot -6.718953 -0.532449 12.447085
RightToeBase 15.679086 -0.000000 -0.000000
1272
root 0.639361 32.655107 -5.580414 23.738233 1.946770 -0.137914
Spine -27.490211 -11.036312 6.931643
Head 30.248034 27.816703 17.415130
LeftShoulder -21.600624 26.068290 52.954050
LeftArm 209.474584 -31.151545 -121.229918
LeftForeArm -14.256195 -0.000000 124.283219
LeftHand -6.152293 -0.000000 -25.454140
LeftHandThumb1 -26.253704 0.000000 33.147579
RightShoulder -49.086975 -59.795726 -13.937524
RightArm 106.077021 40.649464 145.024532
RightForeArm 75.849263 -0.000000 133.040252
RightHand 11.871168 -0.000000 1.297902
RightHandThumb1 -24.326973 -0.000000 -32.862282
LeftUpLeg -16.469038 4.015616 -0.680750
LeftLeg -1.664085 -0.000000 0.000000
LeftFoot -4.576281 -2.503440 -1.775930
LeftToeBase 3.444396 -0.000000 -0.000000
RightUpLeg -16.101973 -9.413332 3.182219
RightLeg -2.619988 -0.000000 0.000000
RightFoot -6.719657 -0.550071 12.476797
RightToeBase 15.768522 -0.000000 -0.000000
1273
root 0.641292 32.655210 -5.582098 23.735339 1.952221 -0.135228
Spine -27.484071 -11.030046 6.933999
Head 30.277289 27.805645 17.406260
LeftShoulder -21.607436 26.068101 52.933452
LeftArm 209.459042 -31.187144 -121.209103
LeftForeArm -14.273476 -0.000000 124.264720
LeftHand -6.129212 -0.000000 -25.375407
LeftHandThumb1 -26.253704 0.000000 33.147579
RightShoulder -49.087793 -59.809401 -13.911201
RightArm 106.156241 40.618763 145.107393
RightForeArm 75.791026 -0.000000 133.040569
RightHand 11.902936 -0.000000 1.292485
RightHandThumb1 -24.326973 -0.000000 -32.862282
LeftUpLeg -16.468480 4.012258 -0.685307
LeftLeg -1.668794 -0.000000 0.000000
LeftFoot -4.571730 -2.500332 -1.766686
LeftToeBase 3.438502 -0.000000 -0.000000
RightUpLeg -16.104005 -9.419861 3.179557
RightLeg -2.615683 -0.000000 0.000000
RightFoot -6.705616 -0.566239 12.434854
RightToeBase 15.625230 -0.000000 -0.000000
